
CASCADE Topology V1, (c) Matra-Datavision
Locations 2
1
              1               0               0               0 
              0               1               0               0 
              0               0               1             1.1 
2  1 -1 0
Curve2ds 20
1 3.1415926535897931 0 0 -1 
1 0 0 0 -1 
1 -9.9499999999999993 8.6000000000000014 0 -1 
1 0 0 0 -1 
1 0 0 1 0 
1 0 -1.1000000000000001 1 0 
2 3.0203729469079711e-16 8.6000000000000014 1 0 -0 1 9.9499999999999993
1 3.1415926535897931 0 0 -1 
1 0 0 1 0 
1 0 -1.1000000000000001 1 0 
2 3.0203729469079711e-16 -8.6000000000000014 -1 0 -0 -1 9.9499999999999993
1 9.9499999999999993 -8.6000000000000014 0 1 
1 0 0 1 0 
2 0 0 1 0 -0 1 3
2 3.0203729469079711e-16 9.1000000000000014 -1 0 0 1 3
1 0 1.1000000000000001 1 0 
2 0 0 1 0 -0 1 3
2 3.0203729469079711e-16 9.1000000000000014 -1 0 0 1 3
1 6.2831853071795862 -0 0 1 
1 0 -0 0 1 
Curves 11
1 9.9499999999999993 8.6000000000000014 0 0 0 1 
1 9.9499999999999993 -8.6000000000000014 0 0 0 1 
1 9.9499999999999993 8.6000000000000014 0 0 -1 0 
1 -9.9499999999999993 8.6000000000000014 0 0 0 1 
2 0 8.6000000000000014 0 0 0 -1 -1 0 0 0 1 0 9.9499999999999993
1 -9.9499999999999993 -8.6000000000000014 0 0 0 1 
2 0 -8.6000000000000014 0 -0 0 -1 1 0 0 0 -1 -0 9.9499999999999993
1 -9.9499999999999993 -8.6000000000000014 0 0 1 0 
2 0 9.1000000000000014 0 0 0 1 1 0 -0 -0 1 0 3
2 0 9.1000000000000014 1.1000000000000001 0 0 1 1 0 -0 -0 1 0 3
1 3 9.1000000000000014 0 0 0 1 
Polygon3D 0
PolygonOnTriangulations 0
Surfaces 8
1 9.9499999999999993 8.6000000000000014 0 1 0 -0 0 -1 0 0 -0 -1 
2 0 8.6000000000000014 0 0 0 -1 -1 0 0 0 1 0 9.9499999999999993
2 0 -8.6000000000000014 0 0 0 -1 1 0 0 0 -1 0 9.9499999999999993
1 3.0203729469079711e-16 -1.5101864734539856e-16 0 -0 -0 -1 -1 0 0 0 1 -0 
1 -9.9499999999999993 -8.6000000000000014 0 -1 0 0 0 1 0 0 0 -1 
2 0 9.1000000000000014 0 0 0 1 1 0 -0 -0 1 0 3
1 0 9.1000000000000014 0 0 0 1 1 0 -0 -0 1 0 
1 0 9.1000000000000014 1.1000000000000001 0 0 1 1 0 -0 -0 1 0 
Triangulations 0

TShapes 36
Ve
1.00000000888178e-07
9.95 8.6 0
0 0

0101101
*
Ed
 1.00000000888178e-07 1 1 0
1  1 0 0 1.1
2  1 2 0 0 1.1
4 G1 1 0 2 0
0

0101000
+36 0 -36 1 *
Ve
1e-07
9.95 -8.6 0
0 0

0101101
*
Ed
 1e-07 1 1 0
1  2 0 0 1.1
2  2 3 0 0 1.1
4 G1 1 0 3 0
0

0101000
+34 0 -34 1 *
Ed
 1e-07 1 1 0
1  3 0 0 17.2
2  3 4 0 0 17.2
0

0101000
+36 0 -34 0 *
Wi

0101100
+35 0 -33 0 -32 0 +32 1 *
Fa
0  1e-07 1 0

0111000
+31 0 *
Ve
1e-07
-9.95 8.6 0
0 0

0101101
*
Ed
 1e-07 1 1 0
1  4 0 0 1.1
2  4 2 0 0 1.1
4 G1 5 0 2 0
0

0101000
+29 0 -29 1 *
Ed
 1e-07 1 1 0
1  5 0 0 3.14159265358979
2  5 2 0 0 3.14159265358979
2  6 2 2 0 3.14159265358979
2  7 4 0 0 3.14159265358979
0

0101000
+29 0 -36 0 *
Wi

0101100
+28 0 -35 0 -27 0 +27 1 *
Fa
0  1e-07 2 0

0101000
+26 0 *
Ve
1.00000000888178e-07
-9.95 -8.6 0
0 0

0101101
*
Ed
 1.00000000888178e-07 1 1 0
1  6 0 0 1.1
2  8 3 0 0 1.1
4 G1 3 0 5 0
0

0101000
+24 0 -24 1 *
Ed
 1e-07 1 1 0
1  7 0 0 3.14159265358979
2  9 3 0 0 3.14159265358979
2  10 3 2 0 3.14159265358979
2  11 4 0 0 3.14159265358979
0

0101000
+34 0 -24 0 *
Wi

0101100
+33 0 -23 0 -22 0 +22 1 *
Fa
0  1e-07 3 0

0101000
+21 0 *
Ed
 1e-07 1 1 0
1  8 0 0 17.2
2  12 4 0 0 17.2
0

0101000
+24 0 -29 0 *
Wi

0101100
+32 0 +27 0 +22 0 +19 0 *
Ve
1.50001e-07
3 9.1 0
0 0

0101101
*
Ed
 1e-07 1 1 0
1  9 0 0 6.28318530717959
2  13 6 0 0 6.28318530717959
2  14 7 0 0 6.28318530717959
2  15 4 0 0 6.28318530717959
0

0101000
+17 0 -17 0 *
Wi

0101100
+16 0 *
Fa
0  1e-07 4 0

0111000
+18 0 +15 0 *
Wi

0101100
+32 1 +27 1 +22 1 +19 1 *
Ve
1.50001e-07
3 9.1 1.1
0 0

0101101
*
Ed
 1e-07 1 1 0
1  10 0 0 6.28318530717959
2  16 6 0 0 6.28318530717959
2  17 8 0 0 6.28318530717959
2  18 4 1 0 6.28318530717959
0

0101000
+12 0 -12 0 *
Wi

0101100
+11 0 *
Fa
0  1e-07 4 1

0111000
+13 0 +10 0 *
Wi

0101100
+23 0 -28 0 -19 0 +19 1 *
Fa
0  1e-07 5 0

0111000
+8 0 *
Ed
 1e-07 1 1 0
1  11 0 0 1.1
3  19 20CN 6 0 0 1.1
0

0101000
-12 0 +17 0 *
Wi

0101100
-11 0 +6 0 +16 0 -6 0 *
Fa
0  1e-07 6 0

0111000
+5 0 *
Sh

0101100
+30 0 +25 0 +20 0 +14 0 -9 0 +7 0 -4 0 *
So

0100000
+3 0 *
Co

1100000
+2 0 *

+1 0 